<?xml version="1.0" standalone="no"?><!DOCTYPE svg PUBLIC "-//W3C//DTD SVG 1.1//EN" "http://www.w3.org/Graphics/SVG/1.1/DTD/svg11.dtd"><svg t="1776251305272" class="icon" viewBox="0 0 1024 1024" version="1.1" xmlns="http://www.w3.org/2000/svg" p-id="1144" width="32" height="32" xmlns:xlink="http://www.w3.org/1999/xlink"><path d="M545.645714 33.01181h-41.496381c0.731429-1.950476 1.706667-1.462857 2.925715-1.462858h35.888762c0.975238 0 1.950476 0 2.681904 1.462858zM29.842286 501.077333c-0.487619 2.730667 1.462857 5.656381-1.462857 8.387048 0.975238-2.438095-1.462857-5.412571 1.462857-8.387048zM28.379429 547.303619c2.925714 2.681905 0.975238 5.607619 1.462857 8.289524-2.925714-2.681905-0.487619-5.607619-1.462857-8.289524zM495.811048 32.52419c-1.755429 2.925714-3.705905 0.975238-5.412572 1.462858 1.706667-2.925714 3.657143-0.975238 5.36381-1.462858zM559.640381 33.645714c-1.706667-0.487619-3.657143 1.462857-5.36381-1.462857 1.706667 0.975238 3.657143-0.975238 5.36381 1.462857zM30.573714 488.838095c-0.487619 1.706667 1.462857 3.657143-1.462857 5.36381 0.975238-1.706667-0.975238-3.657143 1.462857-5.36381zM29.403429 561.737143c2.925714 1.755429 0.975238 3.705905 1.462857 5.461333-2.925714-1.462857-0.975238-3.413333-1.462857-5.412571zM485.180952 33.304381c-1.511619 2.438095-3.31581 0.975238-4.87619 1.462857 1.560381-2.925714 3.364571-0.975238 4.87619-1.462857zM569.685333 34.767238c-1.511619-0.487619-3.31581 0.975238-4.87619-1.462857 1.80419 0.487619 3.608381-1.462857 4.87619 1.462857zM30.232381 571.830857c2.438095 1.560381 0.975238 3.120762 1.462857 4.876191-2.925714-1.511619-0.975238-3.31581-1.462857-4.876191zM32.329143 472.84419c0 1.511619 0.975238 3.364571-1.462857 4.876191 0-1.80419-0.975238-3.657143 1.462857-4.876191zM31.597714 480.451048c0 1.560381 0.975238 3.364571-1.462857 4.87619 0-1.80419-0.975238-3.31581 1.462857-4.87619z" fill="#FFFFFF" p-id="1145"></path><path d="M534.869333 822.613333c-15.018667 0-29.744762-2.633143-43.983238-7.070476-2.243048-0.731429-3.413333-1.219048-2.925714-4.388571 2.681905-18.236952 5.12-36.62019 7.558095-54.808381 2.243048-15.750095 4.193524-31.451429 6.38781-47.445334l5.90019-40.764952c0.24381-2.438095-0.487619-3.657143-2.681905-3.900952a119.954286 119.954286 0 0 1-40.033523-12.044191 114.834286 114.834286 0 0 1-31.451429-21.406476c-1.950476-1.950476-3.413333-1.950476-5.656381-0.487619l-94.305524 71.484952c-6.631619 4.924952-13.263238 10.093714-19.651047 15.262477-1.462857 1.219048-2.243048 0.975238-3.462096 0a138.630095 138.630095 0 0 1-38.326857-55.53981 194.80381 194.80381 0 0 1-6.144-20.382476c-0.731429-2.681905 0-3.705905 2.243048-4.681143 27.257905-10.776381 54.272-21.601524 81.529905-32.426667 15.701333-6.339048 31.207619-12.775619 46.908952-18.919619 2.438095-0.975238 2.438095-1.950476 1.462857-3.900952a148.72381 148.72381 0 0 1-10.044952-42.764191c-1.219048-14.482286 0.487619-28.769524 3.705905-42.715428 0.487619-2.730667 0.487619-3.949714-2.438096-4.924953-38.375619-15.750095-76.458667-31.695238-114.736762-47.640381-3.949714-1.755429-7.899429-3.218286-11.800381-4.681142-1.755429-0.731429-2.438095-1.706667-1.950476-3.900953 5.607619-23.405714 15.457524-44.519619 31.402667-62.902857 4.193524-4.681143 8.630857-9.118476 13.019429-13.799619 1.462857-1.462857 2.438095-1.462857 4.193523 0 21.113905 16.969143 42.22781 33.645714 63.390477 50.614857 13.994667 11.068952 27.989333 22.137905 41.74019 33.401905 1.950476 1.462857 2.681905 1.26781 4.193524-0.487619 13.019429-15.701333 28.769524-27.745524 47.152762-36.571429 9.069714-4.437333 18.432-7.655619 28.281904-9.606095 2.681905-0.487619 3.169524-1.706667 2.925715-4.144762l-5.168762-39.058286-5.900191-43.983238c-1.706667-12.775619-3.169524-25.84381-4.87619-38.570666-0.487619-4.681143-1.26781-9.362286-1.999238-13.994667-0.487619-2.243048 0-3.705905 2.438095-4.193524a181.394286 181.394286 0 0 1 38.083048-6.339047c16.969143-0.78019 33.158095 1.950476 49.395809 6.095238 2.681905 0.731429 3.169524 1.950476 2.925714 4.388571-1.462857 9.118476-2.925714 18.18819-4.144761 27.306667l-5.900191 39.302095c-1.755429 12.288-3.705905 24.576-5.656381 37.059048l-5.168762 32.475428c-0.487619 2.681905 1.219048 2.925714 2.925715 3.413334 6.680381 1.462857 13.06819 3.218286 19.407238 5.656381 15.018667 5.851429 28.769524 13.994667 41.057523 24.576 4.681143 3.900952 9.069714 7.850667 12.775619 12.531809 1.706667 1.950476 2.925714 0.731429 4.144762-0.243809l23.600762-17.700572c12.53181-9.606095 25.307429-19.163429 37.839238-28.769524 17.456762-13.214476 34.864762-26.526476 52.321524-39.984762 2.438095-1.950476 3.657143-1.462857 5.656381 0.487619 11.800381 11.264 22.089143 24.039619 29.744762 38.765715 6.095238 11.800381 10.532571 24.380952 13.458286 37.351619 0.487619 2.243048 0 2.925714-1.950476 3.705905-44.470857 17.65181-88.697905 35.352381-133.12 53.052952-2.925714 1.219048-3.705905 2.438095-2.438096 5.363809 3.169524 9.606095 4.632381 19.456 5.36381 29.500953 1.462857 16.237714-0.731429 31.939048-4.876191 47.689143-0.78019 2.438095-0.292571 3.169524 1.950477 4.144762 21.357714 8.874667 42.471619 17.944381 63.878095 27.014095 19.358476 8.387048 39.009524 16.725333 58.416762 24.868571 4.681143 1.950476 9.362286 4.144762 14.287238 5.851429 2.438095 0.975238 3.169524 2.194286 2.438095 4.87619-4.388571 20.187429-12.288 38.619429-25.063619 55.100953a162.620952 162.620952 0 0 1-18.67581 20.333714c-1.462857 1.462857-2.681905 1.950476-4.87619 0.292571-20.675048-16.481524-41.545143-32.426667-62.415238-48.90819-17.456762-13.750857-35.108571-27.306667-52.565333-41.008762-2.925714-2.438095-4.87619-2.243048-7.363048 0.731429a131.510857 131.510857 0 0 1-41.545143 31.939047c-6.144 3.169524-12.775619 5.851429-19.651048 7.801905-2.925714 0.78019-3.900952 1.999238-3.657142 5.217524 0.975238 7.119238 1.706667 14.482286 2.681904 21.601524 1.219048 9.606095 2.438095 18.919619 3.413334 28.476952l4.437333 35.59619c1.26781 9.362286 2.243048 18.724571 3.218286 28.038096 1.219048 9.362286 2.438095 18.432 3.413333 27.794285l0.780191 6.826667c0.24381 1.755429-0.78019 1.950476-1.950477 2.243048a150.674286 150.674286 0 0 1-31.207619 6.826666 102.253714 102.253714 0 0 0-12.288 0zM509.561905 104.106667v1.950476c0.731429 3.949714-0.975238 4.681143-4.924953 4.924952-13.994667 0.78019-27.989333 2.438095-42.032762 4.924953-6.144 0.975238-12.53181 2.438095-18.627047 3.413333-2.730667 0.487619-3.705905 1.755429-3.705905 4.681143 0.24381 11.068952 0 22.381714 0.24381 33.450666 0 3.169524-0.24381 4.632381-4.193524 5.36381a151.161905 151.161905 0 0 0-38.034286 12.775619c-28.281905 12.775619-55.05219 28.038095-81.091048 44.958476a264.825905 264.825905 0 0 0-45.689904 37.10781 113.615238 113.615238 0 0 0-9.849905 11.800381c-1.462857 1.950476-2.438095 2.681905-5.12 1.219047-12.288-7.850667-24.868571-15.213714-37.351619-22.820571-1.950476-1.26781-3.218286-0.975238-4.681143 0.731428a449.731048 449.731048 0 0 0-37.059048 45.202286c-1.26781 1.462857-1.950476 1.462857-3.462095 0.487619-4.681143-3.413333-9.557333-6.631619-14.482286-10.093714-1.950476-1.462857-1.462857-2.681905-0.243809-4.388571 6.339048-8.874667 13.019429-17.456762 19.894857-25.84381 10.532571-12.775619 22.089143-24.771048 33.889524-36.327619 15.701333-15.506286 32.670476-29.744762 50.614857-42.520381 20.138667-14.482286 41.252571-27.257905 63.634286-38.521905a444.952381 444.952381 0 0 1 108.30019-38.619428c15.506286-3.413333 30.96381-6.095238 46.665143-7.606857l22.869333-2.194286c2.681905-0.24381 3.705905 0.731429 3.705905 3.413333 0 3.949714 0.487619 8.387048 0.731429 12.53181zM615.66781 125.513143c1.219048-4.193524-1.219048-5.412571-4.876191-6.38781a364.105143 364.105143 0 0 0-51.638857-8.387047c-0.487619 0-0.975238-0.24381-1.462857-0.24381-5.168762-0.975238-5.168762-0.975238-4.193524-6.631619 0.487619-3.900952 0.975238-7.801905 0.975238-11.751619 0-3.705905 1.462857-4.924952 4.924952-4.437333 8.630857 1.219048 17.212952 2.194286 25.84381 3.413333 19.114667 2.925714 37.790476 7.168 56.222476 12.53181 17.944381 5.168762 35.108571 11.556571 52.321524 18.675809a476.550095 476.550095 0 0 1 113.956571 69.241905c12.04419 10.093714 23.893333 20.675048 34.913524 31.695238 20.138667 20.675048 38.326857 42.76419 54.272 66.852571 1.706667 2.681905 1.706667 3.900952-0.975238 5.656381-4.388571 2.681905-8.825905 5.656381-13.263238 8.582096-1.950476 1.462857-2.925714 0.731429-4.193524-0.975238a479.329524 479.329524 0 0 0-36.083809-47.152762c-0.24381-0.487619-0.731429-0.731429-0.975238-1.219048-4.193524-4.437333-4.193524-4.437333-9.606096-1.26781-9.069714 5.412571-18.432 10.581333-27.501714 15.993905-3.705905 2.194286-4.87619 0-6.631619-2.194285-12.04419-13.55581-26.331429-24.088381-41.252571-34.133334a597.430857 597.430857 0 0 0-76.166096-43.495619 222.256762 222.256762 0 0 0-55.296-18.675809c-2.438095-0.487619-4.87619-0.975238-7.119238-0.975238-2.438095 0-3.169524-1.26781-2.925714-3.218286 1.462857-11.800381 0.487619-23.600762 0.731429-35.352381-0.487619-1.755429 0.487619-3.705905 0-6.144zM964.022857 528.871619c0.731429 12.04419-0.487619 25.551238-1.755428 39.009524a460.8 460.8 0 0 1-45.689905 163.644952c-1.462857 2.681905-2.438095 3.169524-5.168762 1.706667-4.632381-2.438095-9.313524-4.87619-13.994667-7.119238-1.950476-0.975238-2.438095-1.950476-1.462857-4.193524 9.069714-17.65181 16.237714-36.327619 22.869333-55.247238 2.438095-6.631619 2.438095-6.875429-3.705904-10.337524-9.313524-5.36381-18.67581-10.776381-27.989334-15.945143-1.950476-1.219048-2.730667-1.950476-1.755428-4.388571 4.924952-12.336762 6.875429-25.35619 8.387047-38.375619 1.462857-12.775619 1.706667-25.795048 2.438096-38.521905 0.487619-11.068952 0.731429-22.430476 0.487619-33.450667-0.975238-25.551238-2.438095-50.858667-9.069715-75.629714a112.054857 112.054857 0 0 0-6.875428-19.894857c-0.975238-2.243048-0.731429-3.462095 1.462857-4.437333l37.546667-20.626286c2.974476-1.462857 3.462095-2.925714 2.486857-6.144a419.693714 419.693714 0 0 0-19.407238-51.590095c-1.462857-3.413333-0.975238-4.87619 2.438095-6.38781 4.681143-1.950476 9.362286-3.900952 14.043428-6.387809 1.950476-0.975238 2.681905-0.487619 3.413334 1.462857a461.287619 461.287619 0 0 1 36.864 128.731428c1.219048 9.069714 1.950476 18.18819 2.681905 27.306667 0.975238 11.702857 1.755429 23.552 1.755428 36.815238zM540.476952 952.32c0-5.851429 0-5.851429 4.924953-6.095238 13.994667-0.731429 27.794286-2.438095 41.788952-4.876191 6.339048-1.024 12.775619-2.486857 19.163429-3.705904 2.438095-0.487619 3.413333-1.755429 3.413333-4.437334-0.24381-11.556571 0-23.113143-0.243809-34.620952 0-2.730667 0.487619-3.705905 3.705904-4.193524 13.019429-2.194286 25.014857-6.631619 37.059048-12.04419 29.744762-13.263238 58.026667-29.257143 84.992-47.396572 15.750095-10.581333 30.47619-22.137905 43.251809-35.888762 3.413333-3.657143 6.875429-7.606857 9.557334-11.800381 1.462857-1.950476 2.438095-2.681905 4.924952-0.975238 12.288 7.655619 24.81981 15.262476 37.351619 22.869334 2.194286 1.219048 3.413333 1.219048 5.168762-0.731429a408.624762 408.624762 0 0 0 36.08381-43.983238c1.950476-2.681905 3.218286-2.438095 5.412571-0.731429 4.193524 3.169524 8.582095 6.339048 13.019429 9.313524 1.950476 1.462857 1.706667 2.438095 0.487619 3.900953-8.825905 12.092952-18.18819 23.893333-27.989334 35.157333a403.260952 403.260952 0 0 1-26.526476 27.794286c-16.725333 15.945143-34.377143 30.72-53.296762 44.178285a442.855619 442.855619 0 0 1-60.464762 36.376381c-17.16419 8.582095-34.864762 16.188952-53.052952 22.820572a484.59581 484.59581 0 0 1-61.44 17.212952c-14.189714 2.925714-28.476952 5.412571-42.910476 6.631619-6.92419 0.487619-13.799619 1.219048-20.431238 2.194286-2.194286 0.292571-3.218286-0.487619-3.218286-2.681905 0-5.168762 0-10.337524-0.731429-14.238476zM435.590095 889.709714c-1.219048 11.556571-0.24381 23.356952-0.731428 34.913524 0 2.925714-0.731429 6.144-0.731429 9.069714 0 1.950476 0.487619 2.925714 2.681905 3.413334 13.799619 2.974476 27.306667 5.90019 41.301333 7.655619l16.676572 2.194285c1.950476 0.24381 2.730667 0.975238 2.438095 2.925715l-1.462857 17.212952c-0.24381 2.730667-2.194286 2.438095-3.900953 2.194286-8.094476-0.975238-16.481524-1.950476-24.576-3.169524-18.18819-2.925714-36.327619-6.875429-54.02819-11.800381-19.407238-5.656381-38.570667-12.288-57.002667-20.138667a470.211048 470.211048 0 0 1-145.408-98.011428 481.767619 481.767619 0 0 1-36.376381-41.008762c-7.119238-9.362286-14.238476-18.67581-20.870095-28.525714-1.706667-2.438095-1.706667-3.657143 0.975238-5.36381a238.445714 238.445714 0 0 0 13.019429-8.630857c1.950476-1.462857 2.925714-1.219048 4.193523 0.731429 8.338286 12.775619 17.65181 25.063619 27.257905 36.864 3.657143 4.681143 7.850667 9.069714 11.800381 13.507047 1.706667 1.950476 3.169524 1.950476 5.12 0.731429 10.337524-6.144 20.675048-12.04419 30.72-17.944381 1.706667-0.975238 2.925714-0.975238 4.193524 0.487619 8.582095 10.581333 18.919619 19.163429 29.93981 27.306667 20.431238 14.726095 41.788952 27.501714 63.878095 39.497142 19.651048 10.825143 40.033524 20.187429 61.44 26.819048 8.582095 2.681905 17.65181 4.144762 26.526476 5.656381 3.169524 0.487619 3.169524 0.487619 2.925714 3.413333zM86.016 528.871619c-0.487619-12.53181 0.487619-26.038857 1.755429-39.302095a470.406095 470.406095 0 0 1 30.72-130.681905c4.632381-11.556571 9.557333-22.869333 15.213714-33.938286 0.975238-2.194286 2.194286-2.438095 4.144762-1.462857 4.924952 2.438095 9.849905 5.168762 14.774857 7.363048 1.950476 0.975238 2.438095 1.755429 1.462857 3.705905-4.87619 10.532571-10.093714 20.870095-14.238476 31.939047-3.218286 8.582095-6.144 17.16419-9.362286 25.551238-1.706667 4.144762-0.487619 5.851429 3.218286 8.094476 9.801143 5.36381 19.163429 11.068952 28.964571 16.432762 1.950476 0.975238 2.438095 1.950476 1.755429 4.193524-5.90019 14.969905-7.655619 30.72-9.118476 46.665143-0.975238 10.093714-0.975238 20.138667-1.706667 30.232381a378.928762 378.928762 0 0 0-0.487619 33.401905c0.731429 25.551238 2.438095 51.102476 9.069714 76.166095 1.706667 6.631619 3.705905 13.019429 6.631619 19.163429 1.462857 2.925714 0.731429 4.144762-1.950476 5.656381-12.53181 6.826667-25.063619 13.750857-37.546667 20.626285-2.486857 1.219048-2.730667 2.681905-1.999238 4.876191 5.656381 17.700571 11.800381 35.108571 19.651048 51.882666 1.462857 3.169524 1.462857 5.12-2.438095 6.339048-4.437333 1.462857-8.630857 3.705905-12.775619 5.90019-2.438095 1.462857-3.705905 0.975238-4.924953-1.706666a541.598476 541.598476 0 0 1-16.725333-43.25181 453.680762 453.680762 0 0 1-22.332952-111.518476 415.207619 415.207619 0 0 1-1.755429-36.327619z" fill="#FFFFFF" p-id="1146"></path></svg>